<svg t="1664435125174" class="icon" viewBox="0 0 1024 1024" version="1.1" xmlns="http://www.w3.org/2000/svg" p-id="3450" width="200" height="200"><path d="M384 234.666667m-42.666667 0a42.666667 42.666667 0 1 0 85.333334 0 42.666667 42.666667 0 1 0-85.333334 0Z" fill="#EFF1F4" p-id="3451"></path><path d="M640 234.666667m-42.666667 0a42.666667 42.666667 0 1 0 85.333334 0 42.666667 42.666667 0 1 0-85.333334 0Z" fill="#EFF1F4" p-id="3452"></path><path d="M810.666667 128a85.333333 85.333333 0 1 1 0 170.666667h-42.666667V128zM256 256v42.666667h-42.666667a85.333333 85.333333 0 0 1 0-170.666667h42.666667z" fill="#CDABA5" p-id="3453"></path><path d="M768 128v128a140.8 140.8 0 0 0-146.346667-149.333333C561.066667 106.666667 512 187.52 512 234.666667c0-47.146667-49.066667-128-109.653333-128A140.8 140.8 0 0 0 256 256V64a42.794667 42.794667 0 0 1 42.666667-42.666667h426.666666a42.794667 42.794667 0 0 1 42.666667 42.666667z" fill="#CDABA5" p-id="3454"></path><path d="M768 256v149.333333a42.794667 42.794667 0 0 1-42.666667 42.666667H298.666667a42.794667 42.794667 0 0 1-42.666667-42.666667v-149.333333a140.8 140.8 0 0 1 146.346667-149.333333C462.933333 106.666667 512 187.52 512 234.666667c0-47.146667 49.066667-128 109.653333-128A140.8 140.8 0 0 1 768 256z m-85.333333-21.333333a42.666667 42.666667 0 1 0-42.666667 42.666666 42.794667 42.794667 0 0 0 42.666667-42.666666z m-256 0a42.666667 42.666667 0 1 0-42.666667 42.666666 42.794667 42.794667 0 0 0 42.666667-42.666666z" fill="#F6C8A4" p-id="3455"></path><path d="M1002.666667 618.666667v213.333333c0-50.773333-40.32-94.506667-89.173334-114.986667 2.56-30.506667 3.84-63.36 3.84-98.346666a509.504 509.504 0 0 0-42.666666-192c-21.333333-42.666667 0-64 21.333333-64s42.666667 0 64 42.666666a650.666667 650.666667 0 0 1 42.666667 213.333334z" fill="#CDABA5" p-id="3456"></path><path d="M341.333333 917.333333v85.333334H21.333333v-42.666667a42.794667 42.794667 0 0 1 42.666667-42.666667h21.333333c0-117.973333 45.44-213.333333 128-213.333333v128a85.333333 85.333333 0 0 0 85.333334 85.333333z" fill="#F6C8A4" p-id="3457"></path><path d="M913.493333 717.013333C962.346667 737.493333 1002.666667 781.226667 1002.666667 832c0 94.293333-50.133333 170.666667-106.666667 170.666667H576v-42.666667a42.794667 42.794667 0 0 1 42.666667-42.666667H298.666667a85.333333 85.333333 0 0 1-85.333334-85.333333V490.666667a42.794667 42.794667 0 0 1 42.666667-42.666667h490.666667c58.88 0 106.666667 138.026667 106.666666 256a154.282667 154.282667 0 0 1 60.16 13.013333z" fill="#F6C8A4" p-id="3458"></path><path d="M725.333333 469.333333v-42.666666a21.333333 21.333333 0 0 0 21.333334-21.333334v-106.666666h42.666666v106.666666a64 64 0 0 1-64 64zM789.333333 128h-42.666666V64a21.333333 21.333333 0 0 0-21.333334-21.333333H298.666667a21.333333 21.333333 0 0 0-21.333334 21.333333v64h-42.666666V64a64 64 0 0 1 64-64h426.666666a64 64 0 0 1 64 64zM298.666667 469.333333a64 64 0 0 1-64-64v-106.666666h42.666666v106.666666a21.333333 21.333333 0 0 0 21.333334 21.333334z" fill="#2A3244" p-id="3459"></path><path d="M810.666667 320h-42.666667a21.333333 21.333333 0 0 1-21.333333-21.333333V128a21.333333 21.333333 0 0 1 21.333333-21.333333h42.666667a106.666667 106.666667 0 1 1 0 213.333333z m-21.333334-42.666667h21.333334a64 64 0 0 0 0-128h-21.333334zM256 320h-42.666667a106.666667 106.666667 0 0 1 0-213.333333h42.666667a21.333333 21.333333 0 0 1 21.333333 21.333333v170.666667a21.333333 21.333333 0 0 1-21.333333 21.333333z m-42.666667-170.666667a64 64 0 1 0 0 128h21.333334V149.333333z" fill="#2A3244" p-id="3460"></path><path d="M789.333333 256h-42.666666a119.850667 119.850667 0 0 0-125.013334-128C576.981333 128 533.333333 195.498667 533.333333 234.666667a21.333333 21.333333 0 0 1-42.666666 0c0-39.168-43.648-106.666667-88.32-106.666667A119.850667 119.850667 0 0 0 277.333333 256h-42.666666a161.877333 161.877333 0 0 1 167.68-170.666667C448.213333 85.333333 488.533333 121.6 512 163.328 535.466667 121.6 575.786667 85.333333 621.653333 85.333333A161.877333 161.877333 0 0 1 789.333333 256z" fill="#2A3244" p-id="3461"></path><path d="M640 298.666667a64 64 0 1 1 64-64 64 64 0 0 1-64 64z m0-85.333334a21.333333 21.333333 0 1 0 21.333333 21.333334 21.333333 21.333333 0 0 0-21.333333-21.333334zM384 298.666667a64 64 0 1 1 64-64 64 64 0 0 1-64 64z m0-85.333334a21.333333 21.333333 0 1 0 21.333333 21.333334 21.333333 21.333333 0 0 0-21.333333-21.333334zM490.666667 320h42.666666v128h-42.666666z" fill="#2A3244" p-id="3462"></path><path d="M469.333333 298.666667h85.333334v42.666666h-85.333334zM426.666667 896h192v42.666667h-192z" fill="#2A3244" p-id="3463"></path><path d="M896 1024H576a21.333333 21.333333 0 0 1-21.333333-21.333333v-42.666667a64 64 0 0 1 64-64h0.704a263.381333 263.381333 0 0 1 69.696-168.768A140.288 140.288 0 0 1 789.333333 682.666667v42.666666a98.901333 98.901333 0 0 0-70.186666 32A227.584 227.584 0 0 0 661.333333 917.333333a21.333333 21.333333 0 0 1-21.333333 21.333334h-21.333333a21.333333 21.333333 0 0 0-21.333334 21.333333v21.333333h298.666667c40.362667 0 85.333333-61.333333 85.333333-149.333333 0-43.818667-38.208-79.445333-76.074666-95.317333A133.568 133.568 0 0 0 853.333333 725.333333a21.333333 21.333333 0 0 1-21.333333-21.333333c0-118.656-48.853333-234.666667-85.333333-234.666667H256a21.333333 21.333333 0 0 0-21.333333 21.333334v341.333333a64 64 0 0 0 64 64v42.666667a106.794667 106.794667 0 0 1-106.666667-106.666667V490.666667a64 64 0 0 1 64-64h490.666667c77.717333 0 122.666667 145.749333 127.552 257.408a184.661333 184.661333 0 0 1 47.701333 13.333333C983.850667 723.370667 1024 776.234667 1024 832c0 105.877333-57.408 192-128 192z" fill="#2A3244" p-id="3464"></path><path d="M341.333333 1024H21.333333a21.333333 21.333333 0 0 1-21.333333-21.333333v-42.666667a64 64 0 0 1 64-64h0.469333C70.272 767.509333 128.618667 682.666667 213.333333 682.666667v42.666666c-73.685333 0-106.666667 96.448-106.666666 192a21.333333 21.333333 0 0 1-21.333334 21.333334H64a21.333333 21.333333 0 0 0-21.333333 21.333333v21.333333h277.333333v-64h42.666667v85.333334a21.333333 21.333333 0 0 1-21.333334 21.333333zM554.666667 576h42.666666v320h-42.666666zM682.666667 576h42.666666v170.666667h-42.666666z" fill="#2A3244" p-id="3465"></path><path d="M426.666667 938.666667h-128a21.333333 21.333333 0 0 1-21.333334-21.333334V576h42.666667v320h85.333333V576h42.666667v341.333333a21.333333 21.333333 0 0 1-21.333333 21.333334zM1024 832h-42.666667V618.666667a629.952 629.952 0 0 0-41.045333-205.184C925.482667 384 915.008 384 896 384a8.405333 8.405333 0 0 0-7.232 3.584c-2.624 4.266667-2.688 14.208 4.992 29.546667A535.829333 535.829333 0 0 1 938.666667 618.666667c0 35.562667-1.322667 69.248-3.925334 100.138666l-0.618666 8.128-42.538667-3.2 0.64-8.533333A1160.533333 1160.533333 0 0 0 896 618.666667a493.333333 493.333333 0 0 0-41.045333-183.850667 69.034667 69.034667 0 0 1-2.496-69.674667A50.666667 50.666667 0 0 1 896 341.333333c29.44 0 57.941333 4.266667 83.2 54.464A673.365333 673.365333 0 0 1 1024 618.666667z" fill="#2A3244" p-id="3466"></path></svg>