<svg t="1664432496917" class="icon" viewBox="0 0 1024 1024" version="1.1" xmlns="http://www.w3.org/2000/svg" p-id="8332" width="200" height="200"><path d="M313.959004 606.558119l0.219399-0.219399 57.482361-56.897299a292.531101 292.531101 0 1 1 297.650395-10.238588l175.518661 134.198642a73.132775 73.132775 0 0 1-88.856322 116.134847l-236.438263-180.637954-102.093354 101.142628a219.398326 219.398326 0 1 1-103.409744-103.409744zM219.398326 877.734449a73.132775 73.132775 0 1 0 0-146.26555 73.132775 73.132775 0 0 0 0 146.26555z m292.531101-438.796651a146.265551 146.265551 0 1 0 0-292.531101 146.265551 146.265551 0 0 0 0 292.531101z" fill="#394648" p-id="8333"></path><path d="M511.929427 292.672247m-292.531101 0a292.531101 292.531101 0 1 0 585.062202 0 292.531101 292.531101 0 1 0-585.062202 0Z" fill="#57BFB5" p-id="8334"></path><path d="M877.593303 804.601674m-146.26555 0a146.265551 146.265551 0 1 0 292.531101 0 146.265551 146.265551 0 1 0-292.531101 0Z" fill="#57BFB5" p-id="8335"></path></svg>