<svg t="1664432537748" class="icon" viewBox="0 0 1024 1024" version="1.1" xmlns="http://www.w3.org/2000/svg" p-id="12328" width="200" height="200"><path d="M910.4 512H690.5c0-49.3-20-93.9-52.3-126.2l155.5-155.5C865.8 302.4 910.4 402 910.4 512zM638.2 638.2l155.5 155.5C721.6 865.8 622 910.4 512 910.4V690.5c17.1 0 33.6-2.4 49.3-6.9 29.5-8.5 55.8-24.3 76.9-45.4zM512 113.6v219.9c-49.3 0-93.9 20-126.2 52.3L230.3 230.3C302.4 158.2 402 113.6 512 113.6zM385.8 638.2L230.3 793.7C158.2 721.6 113.7 622 113.7 512h219.9c-0.1 49.3 19.9 93.9 52.2 126.2z" fill="#F3D925" p-id="12329"></path><path d="M512 928.8c56.3 0 110.8-11 162.2-32.8 49.6-21 94.2-51 132.5-89.3S875 723.9 896 674.2c21.7-51.4 32.8-106 32.8-162.2 0-56.3-11-110.9-32.8-162.3-21-49.6-51-94.2-89.3-132.5s-82.8-68.3-132.5-89.3c-51.4-21.7-106-32.8-162.2-32.8s-110.8 11-162.2 32.8c-49.6 21-94.2 51-132.5 89.3S149 300 128 349.7c-21.7 51.4-32.8 106-32.8 162.3 0 56.3 11 110.8 32.8 162.2 21 49.6 51 94.2 89.3 132.5S300.1 875 349.8 896c51.4 21.8 105.9 32.8 162.2 32.8zM256.7 793.4l129.7-129.7c30.5 25.4 67.6 40.7 107.1 44.4v183.4c-44.8-2.1-88.2-12-129.4-29.4-39.5-16.8-75.6-39.9-107.4-68.7z m142.2-394.5C429.1 368.6 469.3 352 512 352c16.2 0 32.2 2.4 47.6 7.2 24.6 7.6 47.2 21.4 65.5 39.7C655.4 429.1 672 469.3 672 512c0 42.7-16.6 82.9-46.9 113.1-19.2 19.2-43 33.2-68.9 40.7-14.3 4.1-29.2 6.2-44.2 6.2-42.7 0-82.9-16.6-113.1-46.9C368.6 594.9 352 554.7 352 512c0-42.7 16.6-82.9 46.9-113.1z m261 463.1c-41.2 17.4-84.6 27.3-129.4 29.4V708.1c12.2-1.1 24.2-3.4 35.9-6.8 26-7.5 50.3-20.3 71.2-37.6l129.7 129.7c-31.8 28.8-67.9 51.9-107.4 68.6z m133.5-94.7L663.7 637.6c25.4-30.5 40.7-67.6 44.4-107.1h183.4c-2.1 44.8-12 88.2-29.4 129.4-16.8 39.5-39.9 75.6-68.7 107.4z m98.1-273.8H708.1c-3.7-39.5-19-76.6-44.4-107.1l129.7-129.7c28.9 31.8 51.9 67.8 68.7 107.4 17.4 41.2 27.2 84.7 29.4 129.4zM767.3 230.6L637.6 360.3c-19.7-16.3-42.6-28.8-67-36.4-13-4.1-26.5-6.7-40.1-8V132.5c44.8 2.1 88.2 12 129.4 29.4 39.5 16.8 75.6 39.9 107.4 68.7zM364.1 162c41.2-17.4 84.6-27.3 129.4-29.4V316c-39.5 3.7-76.6 19-107.1 44.4L256.7 230.6c31.8-28.8 67.9-51.9 107.4-68.6z m-133.5 94.7l129.7 129.7c-25.4 30.5-40.7 67.6-44.4 107.1H132.6c2.1-44.8 12-88.2 29.4-129.4 16.7-39.5 39.8-75.6 68.6-107.4z m-98 273.8H316c3.7 39.5 19 76.6 44.4 107.1L230.6 767.3c-28.9-31.8-51.9-67.8-68.7-107.4-17.4-41.2-27.2-84.7-29.3-129.4z" fill="#6A3906" p-id="12330"></path><path d="M454.4 643.1c17.5 7.4 36.1 11.1 55.2 11.1 10.2 0 18.5-8.3 18.5-18.5s-8.3-18.5-18.5-18.5c-14.2 0-27.9-2.8-40.8-8.2-39.2-16.5-64.5-54.6-64.5-97.1 0-42.4 25.3-80.5 64.3-97.1 13-5.5 26.8-8.3 41-8.3 10.2 0 18.5-8.3 18.5-18.5s-8.3-18.5-18.5-18.5c-19.2 0-37.8 3.8-55.4 11.2-52.8 22.3-86.9 73.8-86.9 131.1 0.1 57.6 34.2 109.1 87.1 131.3z" fill="#6A3906" p-id="12331"></path><path d="M943.6 329.6c-23.6-55.8-57.4-105.9-100.4-148.9-43-43-93.1-76.8-148.9-100.4C636.6 55.9 575.2 43.5 512 43.5c-10.2 0-18.5 8.3-18.5 18.5s8.3 18.5 18.5 18.5c58.3 0 114.8 11.4 168 33.9 51.4 21.7 97.5 52.9 137.2 92.5s70.8 85.8 92.5 137.2c22.5 53.2 33.9 109.7 33.9 168s-11.4 114.8-33.9 168c-21.7 51.4-52.9 97.5-92.5 137.2s-85.8 70.8-137.2 92.5c-53.2 22.5-109.7 33.9-168 33.9-10.2 0-18.5 8.3-18.5 18.5s8.3 18.5 18.5 18.5c63.2 0 124.6-12.4 182.4-36.8 55.8-23.6 105.9-57.4 148.9-100.4 43-43 76.8-93.1 100.4-148.9 24.4-57.8 36.8-119.1 36.8-182.4s-12.4-124.8-36.9-182.6z" fill="#6A3906" p-id="12332"></path></svg>